<svg xmlns="http://www.w3.org/2000/svg" width="509.127" height="469.4" viewBox="0 0 509.127 469.4">
  <g id="details" transform="translate(-243.4 0)">
    <path id="Caminho_231" data-name="Caminho 231" d="M612.366,682.319a207.533,207.533,0,0,1-40.54,1.96c-32.66-1.65-64.78-11.15-92.23-29.01-12.17-7.92-23.78-17.65-30.08-30.72-8.55-17.75-5.56-40.22,6.65-55.68a56.014,56.014,0,0,1,16.14-13.77c.92-.52,1.86-1.02,2.81-1.5a60.557,60.557,0,0,1,33.48-6.13c19.58,2.14,37.65,14.1,48.09,30.81,9.3,14.9,12.54,32.48,14.45,50.1.36,3.32.67,6.65.97,9.96a146.378,146.378,0,0,1-7.81,28.06,9.8,9.8,0,0,0-.44,1.36q3,6.51,5.71,13.14a11.557,11.557,0,0,0,5.53,1.4h37.19Z" transform="translate(-175.662 -215.279)" fill="#f2f2f2"/>
    <path id="Caminho_232" data-name="Caminho 232" d="M568.795,683.169a2.033,2.033,0,0,1-2.7-1.06c-.16-.38-.31-.76-.47-1.14q-2.16-5.25-4.53-10.4a316.784,316.784,0,0,0-88.17-114.1,1.478,1.478,0,0,1-.62-1.37,2.032,2.032,0,0,1,2.81-1.5,1.923,1.923,0,0,1,.42.26,317.514,317.514,0,0,1,44.26,43.95,322.508,322.508,0,0,1,34.91,51.66q4.065,7.5,7.72,15.21c.48,1.02.96,2.05,1.43,3.08q3,6.51,5.71,13.14c.03.07.06.15.09.22a1.48,1.48,0,0,1-.86,2.05Z" transform="translate(-175.662 -215.279)" fill="#fff"/>
    <path id="Caminho_233" data-name="Caminho 233" d="M432.3,527.156a4.045,4.045,0,0,1-2.434-.808l-.044-.033-9.165-7.017a4.072,4.072,0,0,1,4.953-6.464l5.937,4.552,14.029-18.3a4.072,4.072,0,0,1,5.709-.754l-.087.118.089-.117a4.077,4.077,0,0,1,.754,5.709l-16.5,21.52a4.073,4.073,0,0,1-3.24,1.589Z" transform="translate(-175.662 -215.279)" fill="#fff"/>
    <circle id="Elipse_74" data-name="Elipse 74" cx="13" cy="13" r="13" transform="translate(578.503 179)" fill="#3f3d56"/>
    <path id="Caminho_247" data-name="Caminho 247" d="M765.877,412.238a1.348,1.348,0,0,1-.811-.269l-.015-.011L762,409.619a1.357,1.357,0,1,1,1.651-2.155l1.979,1.517,4.676-6.1a1.357,1.357,0,0,1,1.9-.251l-.029.039.03-.039a1.359,1.359,0,0,1,.251,1.9l-5.5,7.173a1.358,1.358,0,0,1-1.08.53Z" transform="translate(-175.662 -215.279)" fill="#fff"/>
    <circle id="Elipse_75" data-name="Elipse 75" cx="13" cy="13" r="13" transform="translate(578.503 217)" fill="#3f3d56"/>
    <path id="Caminho_248" data-name="Caminho 248" d="M765.877,450.238a1.348,1.348,0,0,1-.811-.269l-.015-.011L762,447.619a1.357,1.357,0,1,1,1.651-2.155l1.979,1.517,4.676-6.1a1.357,1.357,0,0,1,1.9-.251l-.029.039.03-.039a1.359,1.359,0,0,1,.251,1.9l-5.5,7.173a1.358,1.358,0,0,1-1.08.53Z" transform="translate(-175.662 -215.279)" fill="#fff"/>
    <circle id="Elipse_76" data-name="Elipse 76" cx="13" cy="13" r="13" transform="translate(585.503 261)" fill="#3f3d56"/>
    <path id="Caminho_249" data-name="Caminho 249" d="M772.877,494.238a1.348,1.348,0,0,1-.811-.269l-.015-.011L769,491.619a1.357,1.357,0,0,1,1.651-2.155l1.979,1.517,4.676-6.1a1.357,1.357,0,0,1,1.9-.251l-.029.039.03-.039a1.359,1.359,0,0,1,.251,1.9l-5.5,7.173a1.358,1.358,0,0,1-1.08.53Z" transform="translate(-175.662 -215.279)" fill="#fff"/>
    <path id="Caminho_250" data-name="Caminho 250" d="M899.521,597.818c-.135,0-.22,0-.249-.005l-16.14,0v-2.38h16.2c.375.013,8.027.229,15.076-8.325,10.506-12.749,19.133-44.31.573-122.264-24.957-104.821-4.142-197.424,5.966-232.372a11.6,11.6,0,0,0-11.164-14.816H668.747a11.656,11.656,0,0,0-9.4,4.784c-4.282,5.89-10.158,17.205-13.835,37.665l-2.342-.421c3.757-20.9,9.824-32.552,14.252-38.643a14.041,14.041,0,0,1,11.324-5.765H909.781a13.984,13.984,0,0,1,13.451,17.857c-10.056,34.767-30.763,126.89-5.937,231.16,18.821,79.051,9.773,111.295-1.131,124.425C908.971,597.38,901.047,597.818,899.521,597.818Z" transform="translate(-175.662 -215.279)" fill="#e6e6e6"/>
    <path id="Caminho_251" data-name="Caminho 251" d="M856.092,641.248c-.135,0-.22,0-.249-.005l-16.14,0v-2.38h16.2c.377.012,8.027.229,15.076-8.325,10.506-12.749,19.133-44.31.573-122.264-24.957-104.821-4.142-197.424,5.966-232.372a11.6,11.6,0,0,0-11.164-14.816H625.318a11.656,11.656,0,0,0-9.4,4.784c-4.282,5.89-10.158,17.205-13.835,37.665l-2.342-.421c3.757-20.9,9.824-32.552,14.252-38.643a14.041,14.041,0,0,1,11.324-5.765H866.352A13.984,13.984,0,0,1,879.8,276.565c-10.056,34.767-30.763,126.89-5.937,231.16,18.821,79.051,9.773,111.3-1.131,124.425C865.542,640.809,857.617,641.248,856.092,641.248Z" transform="translate(-175.662 -215.279)" fill="#ccc"/>
    <path id="Caminho_252" data-name="Caminho 252" d="M830.435,551.159c-24.83-104.27-4.12-196.4,5.94-231.16a13.994,13.994,0,0,0-13.45-17.86H581.886a14.031,14.031,0,0,0-11.32,5.76c-9.73,13.38-29.92,57.75-7.37,180.52,12.06,65.68,11.88,110.46,7.94,139.96-2.21,16.61-5.62,28.37-8.71,36.3l-.33.84a13.641,13.641,0,0,0-1,5.05,13.835,13.835,0,0,0,4.53,10.4,13.242,13.242,0,0,0,3.17,2.2,13.415,13.415,0,0,0,3.03,1.11,13.676,13.676,0,0,0,3.27.39H812.415c.03,0,.11.01.25.01,1.52,0,9.45-.44,16.64-9.1C840.205,662.449,849.255,630.209,830.435,551.159Zm-2.89,122.81c-7.05,8.56-14.7,8.34-15.07,8.33H575.1a11.636,11.636,0,0,1-9.63-5.11,11.367,11.367,0,0,1-1.61-9.43,9.806,9.806,0,0,1,.44-1.36,146.378,146.378,0,0,0,7.81-28.06c5.64-30.75,6.69-78.2-6.57-150.35-22.38-121.86-2.59-165.56,6.95-178.69a11.681,11.681,0,0,1,9.4-4.78H822.925a11.6,11.6,0,0,1,11.16,14.81c-10.11,34.95-30.92,127.56-5.96,232.38,18.56,77.95,9.93,109.51-.58,122.26Z" transform="translate(-175.662 -215.279)" fill="#3f3d56"/>
    <path id="Caminho_253" data-name="Caminho 253" d="M715.925,415.679H591.739a9.519,9.519,0,0,1,0-19.038H715.925a9.519,9.519,0,0,1,0,19.038Z" transform="translate(-175.662 -215.279)" fill="#ccc"/>
    <path id="Caminho_254" data-name="Caminho 254" d="M715.925,456.679H591.739a9.519,9.519,0,0,1,0-19.038H715.925a9.519,9.519,0,0,1,0,19.038Z" transform="translate(-175.662 -215.279)" fill="#ccc"/>
    <path id="Caminho_255" data-name="Caminho 255" d="M725.925,498.679H601.739a9.519,9.519,0,0,1,0-19.038H725.925a9.519,9.519,0,1,1,0,19.038Z" transform="translate(-175.662 -215.279)" fill="#ccc"/>
    <path id="Caminho_256" data-name="Caminho 256" d="M732.925,542.679H608.739a9.519,9.519,0,0,1,0-19.038H732.925a9.519,9.519,0,0,1,0,19.038Z" transform="translate(-175.662 -215.279)" fill="#ccc"/>
    <path id="Caminho_257" data-name="Caminho 257" d="M732.977,341.769H643.738a9.519,9.519,0,0,1,0-19.038h89.239a9.519,9.519,0,0,1,0,19.038Z" transform="translate(-175.662 -215.279)" fill="#3f3d56"/>
    <circle id="Elipse_77" data-name="Elipse 77" cx="13" cy="13" r="13" transform="translate(593.503 304.882)" fill="#ccc"/>
    <path id="Caminho_258" data-name="Caminho 258" d="M738.925,585.679H614.739a9.519,9.519,0,0,1,0-19.038H738.925a9.519,9.519,0,0,1,0,19.038Z" transform="translate(-175.662 -215.279)" fill="#ccc"/>
    <circle id="Elipse_78" data-name="Elipse 78" cx="13" cy="13" r="13" transform="translate(599.503 347.882)" fill="#ccc"/>
  </g>
</svg>
