<svg id="undraw_Astronaut_xko2" xmlns="http://www.w3.org/2000/svg" xmlns:xlink="http://www.w3.org/1999/xlink" width="728" height="728" viewBox="0 0 728 728">
  <defs>
    <linearGradient id="linear-gradient" x1="0.5" y1="1" x2="0.5" gradientUnits="objectBoundingBox">
      <stop offset="0" stop-color="gray" stop-opacity="0.251"/>
      <stop offset="0.535" stop-color="gray" stop-opacity="0.122"/>
      <stop offset="1" stop-color="gray" stop-opacity="0.102"/>
    </linearGradient>
  </defs>
  <path id="Caminho_68" data-name="Caminho 68" d="M964,450a365.931,365.931,0,0,1-4.81,59.32c-.26,1.62-.54,3.24-.83,4.86-20.84,117.17-97.75,214.96-202,264.62-.5.24-1.01.48-1.52.72q-6.105,2.88-12.35,5.54c-1.12.47-2.23.94-3.36,1.4a361.02,361.02,0,0,1-69.93,20.97c-1.06.21-2.12.4-3.18.59A365.287,365.287,0,0,1,600.27,814h-1.01c-1.96,0-3.92-.02-5.87-.07-.37,0-.74,0-1.11-.02a365.115,365.115,0,0,1-65.44-7.26c-1.05-.22-2.1-.44-3.15-.67a359.568,359.568,0,0,1-56.82-17.1c-1.13-.43-2.24-.88-3.36-1.34q-6.24-2.5-12.35-5.26c-.51-.23-1.02-.46-1.52-.69-107.29-48.73-186.76-148-208-267.41-.29-1.62-.57-3.24-.83-4.86a368.1,368.1,0,0,1-.04-118.38c.36-2.25.75-4.51,1.17-6.75a358.923,358.923,0,0,1,11.7-46.44q.75-2.325,1.53-4.65C303.87,189.42,439.86,86,600,86c178.56,0,327.09,128.58,358.06,298.19.42,2.24.81,4.5,1.17,6.75A366.107,366.107,0,0,1,964,450Z" transform="translate(-236 -86)"/>
  <path id="Caminho_69" data-name="Caminho 69" d="M546.894,229.189h-1.942c-.4,0-1.373-1.552-1.373-2v-1.8c0-1.408-1.592-5.269-3-5.269s-3,3.862-3,5.269v1.8c0,.635-.49,2-1.089,2h-1.942c-1.408,0-5.269,1.092-5.269,2.5s3.862,2.5,5.269,2.5h2.315c.733,0,.715.754.715,1.138v2.406c0,1.408,1.592,5.269,3,5.269s3-3.862,3-5.269v-2.406c0-.319.644-1.138,1-1.138h2.315c1.408,0,5.269-1.092,5.269-2.5S548.3,229.189,546.894,229.189Z" transform="translate(-236 -86)" fill="#2196f3"/>
  <path id="Caminho_70" data-name="Caminho 70" d="M274.876,332.428h-2.565c-.522,0-1.814-2.05-1.814-2.639v-2.383c0-1.86-2.1-6.961-3.963-6.961s-3.963,5.1-3.963,6.961v2.383c0,.838-.647,2.639-1.439,2.639h-2.565c-1.86,0-6.961,1.443-6.961,3.3s5.1,3.3,6.961,3.3h3.059c.969,0,.945,1,.945,1.5v3.178c0,1.86,2.1,6.961,3.963,6.961s3.963-5.1,3.963-6.961v-3.178c0-.421.85-1.5,1.32-1.5h3.059c1.86,0,6.961-1.443,6.961-3.3S276.735,332.428,274.876,332.428Z" transform="translate(-236 -86)" fill="url(#linear-gradient)"/>
  <path id="Caminho_71" data-name="Caminho 71" d="M548.876,228.428h-2.565c-.522,0-1.814-2.05-1.814-2.639v-2.383c0-1.86-2.1-6.961-3.963-6.961s-3.963,5.1-3.963,6.961v2.383c0,.838-.647,2.639-1.439,2.639h-2.565c-1.86,0-6.961,1.443-6.961,3.3s5.1,3.3,6.961,3.3h3.059c.969,0,.945,1,.945,1.5v3.178c0,1.86,2.1,6.961,3.963,6.961s3.963-5.1,3.963-6.961v-3.178c0-.421.85-1.5,1.32-1.5h3.059c1.86,0,6.961-1.443,6.961-3.3S550.735,228.428,548.876,228.428Z" transform="translate(-236 -86)" fill="#fff"/>
  <path id="Caminho_72" data-name="Caminho 72" d="M825.876,275.428h-2.565c-.522,0-1.814-2.05-1.814-2.639v-2.383c0-1.86-2.1-6.961-3.963-6.961s-3.963,5.1-3.963,6.961v2.383c0,.838-.647,2.639-1.439,2.639h-2.565c-1.86,0-6.961,1.443-6.961,3.3s5.1,3.3,6.961,3.3h3.059c.969,0,.945,1,.945,1.5v3.178c0,1.86,2.1,6.961,3.963,6.961s3.963-5.1,3.963-6.961v-3.178c0-.421.85-1.5,1.32-1.5h3.059c1.86,0,6.961-1.443,6.961-3.3S827.735,275.428,825.876,275.428Z" transform="translate(-236 -86)" fill="url(#linear-gradient)"/>
  <path id="Caminho_73" data-name="Caminho 73" d="M715.8,259.189h-1.237c-.252,0-.989-.979-.989-1.263v-1.15c0-.9-1.1-3.358-2-3.358s-2,2.461-2,3.358v1.15c0,.4-.023,1.263-.4,1.263h-1.237c-.9,0-3.358.6-3.358,1.5s2.461,1.5,3.358,1.5h1.476c.467,0,.166.677.166.922v1.533c0,.9,1.1,3.358,2,3.358s2-2.461,2-3.358v-1.532c0-.2.524-.922.75-.922H715.8c.9,0,3.358-.6,3.358-1.5S716.7,259.189,715.8,259.189Z" transform="translate(-236 -86)" fill="#1976d2"/>
  <path id="Caminho_74" data-name="Caminho 74" d="M368.284,315.231h-2.017c-.411,0-1.612-1.6-1.612-2.059V311.3c0-1.462-1.8-5.474-3.26-5.474s-3.26,4.012-3.26,5.474v1.874c0,.659-.037,2.059-.659,2.059h-2.017c-1.462,0-5.474.983-5.474,2.445s4.012,2.445,5.474,2.445h2.405c.762,0,.271,1.1.271,1.5v2.5c0,1.462,1.8,5.474,3.26,5.474s3.26-4.012,3.26-5.474v-2.5c0-.331.854-1.5,1.223-1.5h2.405c1.462,0,5.474-.983,5.474-2.445S369.746,315.231,368.284,315.231Z" transform="translate(-236 -86)" fill="#3f3d56"/>
  <path id="Caminho_75" data-name="Caminho 75" d="M718.284,258.231h-2.017c-.411,0-1.612-1.6-1.612-2.059V254.3c0-1.462-1.8-5.474-3.26-5.474s-3.26,4.012-3.26,5.474v1.874c0,.659-.037,2.059-.659,2.059h-2.017c-1.462,0-5.474.983-5.474,2.445s4.012,2.445,5.474,2.445h2.405c.762,0,.271,1.1.271,1.5v2.5c0,1.462,1.8,5.474,3.26,5.474s3.26-4.012,3.26-5.474v-2.5c0-.331.854-1.5,1.223-1.5h2.405c1.462,0,5.474-.983,5.474-2.445S719.746,258.231,718.284,258.231Z" transform="translate(-236 -86)" fill="#fff"/>
  <path id="Caminho_76" data-name="Caminho 76" d="M365.8,316.189h-1.237c-.252,0-.989-.979-.989-1.263v-1.15c0-.9-1.1-3.358-2-3.358s-2,2.461-2,3.358v1.15c0,.4-.023,1.263-.4,1.263h-1.237c-.9,0-3.358.6-3.358,1.5s2.461,1.5,3.358,1.5h1.476c.467,0,.166.677.166.922v1.533c0,.9,1.1,3.358,2,3.358s2-2.461,2-3.358v-1.532c0-.2.524-.922.75-.922H365.8c.9,0,3.358-.6,3.358-1.5S366.7,316.189,365.8,316.189Z" transform="translate(-236 -86)" fill="#1976d2"/>
  <circle id="Elipse_28" data-name="Elipse 28" cx="7.5" cy="7.5" r="7.5" transform="translate(406.579 142.189)" fill="#64b5f6"/>
  <circle id="Elipse_29" data-name="Elipse 29" cx="2.5" cy="2.5" r="2.5" transform="translate(396.579 218.523)" fill="#0071bc"/>
  <circle id="Elipse_30" data-name="Elipse 30" cx="6.958" cy="6.958" r="6.958" transform="translate(109.58 157.19)" fill="#64b5f6"/>
  <circle id="Elipse_31" data-name="Elipse 31" cx="3.479" cy="3.479" r="3.479" transform="translate(51.579 187.003)" fill="#64b5f6"/>
  <circle id="Elipse_32" data-name="Elipse 32" cx="3.479" cy="3.479" r="3.479" transform="translate(338.579 258.003)" fill="#82a9ff"/>
  <circle id="Elipse_33" data-name="Elipse 33" cx="6.5" cy="6.5" r="6.5" transform="translate(76.871 317.106)" fill="#82a9ff"/>
  <circle id="Elipse_34" data-name="Elipse 34" cx="6.071" cy="6.071" r="6.071" transform="translate(206.217 142.827)" fill="url(#linear-gradient)"/>
  <circle id="Elipse_35" data-name="Elipse 35" cx="6.071" cy="6.071" r="6.071" transform="translate(207.217 218.827)" fill="url(#linear-gradient)"/>
  <circle id="Elipse_36" data-name="Elipse 36" cx="6.071" cy="6.071" r="6.071" transform="translate(526.216 126.826)" fill="url(#linear-gradient)"/>
  <circle id="Elipse_37" data-name="Elipse 37" cx="6.071" cy="6.071" r="6.071" transform="translate(665.216 234.827)" fill="url(#linear-gradient)"/>
  <circle id="Elipse_38" data-name="Elipse 38" cx="3.708" cy="3.708" r="3.708" transform="translate(208.58 145.19)" fill="#0d47a1"/>
  <circle id="Elipse_39" data-name="Elipse 39" cx="7.5" cy="7.5" r="7.5" transform="translate(297.579 196.189)" fill="#64b5f6"/>
  <path id="Caminho_77" data-name="Caminho 77" d="M762.87,605.58c-.24,8.8-3.1,17.21-6.51,25.38-.5,1.2-1.01,2.39-1.52,3.57l-1.59,3.6c-2.78,6.28-5.62,12.65-10,17.94-.25.3-.5.6-.76.89a31.236,31.236,0,0,1-3.36,3.25,22.985,22.985,0,0,1-13.35,5.67c-9.54.5-17.81-6.15-25.03-12.42q-12.915-11.19-25.83-22.41c-2.96-2.56-10.14-8.79-10.77-9.34V743.97h-2.21l1.32,20.71,2.76,43.34A365.286,365.286,0,0,1,600.27,814l-1.82-49.25-.52-14.03-.25-6.75h-2.06l-.18,3.67-.81,17.11-2.35,49.16a365.109,365.109,0,0,1-65.44-7.26l2.61-41.91,1.3-20.77h-1.29V619.73a108.315,108.315,0,0,1-12.72,14.04c-9.06,8.5-19.38,15.89-29.53,23.09-6.16,4.37-13.17,8.88-20.34,10.61a26.285,26.285,0,0,1-3.36.59,20.4,20.4,0,0,1-9.35-1.01,18.63,18.63,0,0,1-3-1.38c-.53-.29-1.03-.6-1.52-.93-7.49-5.11-11.43-14.91-14.52-23.82-3.74-10.8-7.54-22.11-5.95-33.43.97-6.85,3.83-13.14,7.41-19.11,2.43-4.05,5.19-7.95,7.92-11.77,1.31-1.83,2.89-3.81,4.98-4.37h.01l.15-.03a3.975,3.975,0,0,1,.77-.11,6.127,6.127,0,0,1,.75.02c2.09.25,3.86,1.92,5.37,3.47l6.98,7.19,3.36,3.45c.18.19.36.38.55.57,1.48,1.52,2.95,3.04,4.43,4.56,2.89-4.99,5.8-10.01,8.87-14.92,6.24-10,13.14-19.54,21.81-27.47a72.417,72.417,0,0,1,14.21-10.2,59.705,59.705,0,0,1,14.13-5.59c5.68-1.42,9.91-2.07,12.81-1.05,2.28.8,3.74,2.65,4.43,5.98a.294.294,0,0,1,.02.1,27.977,27.977,0,0,1,.46,5.35c0,1.11,0,2.22-.01,3.34H643.6c-.09-2.88-.17-6.04-.02-8.69.03-.64.08-1.25.14-1.82a7.546,7.546,0,0,1,1.08-3.73,4.727,4.727,0,0,1,3.69-1.38c4.38-.06,10.71,2.85,13.81,4.01a90.923,90.923,0,0,1,12.62,5.88c19.54,10.94,35.22,28.95,42.42,50.22a19.553,19.553,0,0,1,3.7-7.21,22.327,22.327,0,0,1,3.97-3.86,24.349,24.349,0,0,1,7.94-4,22.428,22.428,0,0,1,6.18-.95,19.834,19.834,0,0,1,3.36.22,18.987,18.987,0,0,1,5.21,1.53,22.578,22.578,0,0,1,7.14,5.24c.54.58,1.04,1.18,1.52,1.8a32.144,32.144,0,0,1,5.92,13.85,35.8,35.8,0,0,1,.59,7.57Z" transform="translate(-236 -86)" fill="#fff"/>
  <path id="Caminho_78" data-name="Caminho 78" d="M655.223,462.536h0c-7.537-26.654-30.99-48.206-58.77-48.206s-51.232,21.552-58.769,48.206h0a12.476,12.476,0,0,0-12.476,12.476v15.171h10.673c4.6,28.991,29.962,48.206,60.572,48.206s55.976-19.215,60.573-48.206h11V475.334a12.8,12.8,0,0,0-12.8-12.8Z" transform="translate(-236 -86)" fill="#fff"/>
  <circle id="Elipse_40" data-name="Elipse 40" cx="49.624" cy="49.624" r="49.624" transform="translate(310.475 345.343)" fill="#3f3d56"/>
  <path id="Caminho_79" data-name="Caminho 79" d="M759.5,377.64a11.08,11.08,0,0,1-2.13,6.55,10.907,10.907,0,0,1-2.44,2.45.552.552,0,0,1-.09.07V779.52q-6.105,2.88-12.35,5.54V387.14a11.159,11.159,0,1,1,17.01-9.5Z" transform="translate(-236 -86)" fill="#e0e0e0"/>
  <path id="Caminho_80" data-name="Caminho 80" d="M964,450c0,20.238-1.64,37.088-4.81,51.7C891.1,401.646,823.017,624.977,754.93,509.32V390.94c68.1,115.679,136.2-107.761,204.3-7.557A519.219,519.219,0,0,1,964,450Z" transform="translate(-236 -86)" fill="#3f3d56"/>
  <path id="Caminho_81" data-name="Caminho 81" d="M468.83,377.64a11.023,11.023,0,0,1-3.77,8.34,10.265,10.265,0,0,1-1.55,1.16v400.4q-6.24-2.5-12.35-5.26V386.71a.548.548,0,0,1-.09-.07,10.91,10.91,0,0,1-2.44-2.45,11.162,11.162,0,1,1,20.2-6.55Z" transform="translate(-236 -86)" fill="#e0e0e0"/>
  <path id="Caminho_82" data-name="Caminho 82" d="M451.07,390.94V509.32C380.983,393.588,310.9,617.288,240.81,516.738A515.236,515.236,0,0,1,236,450c0-20.146,1.63-37.023,4.77-51.7C310.87,498.993,380.97,275.186,451.07,390.94Z" transform="translate(-236 -86)" fill="#3f3d56"/>
  <path id="Caminho_83" data-name="Caminho 83" d="M602.363,442.306a49.542,49.542,0,0,1,39.617,19.745,49.625,49.625,0,1,0-85.5,48.8,49.633,49.633,0,0,1,45.881-68.54Z" transform="translate(-236 -86)" opacity="0.2"/>
  <path id="Caminho_84" data-name="Caminho 84" d="M419.394,340.189h-1.941c-.4,0-1.373-1.552-1.373-2v-1.8c0-1.408-1.592-5.269-3-5.269s-3,3.862-3,5.269v1.8c0,.635-.49,2-1.089,2h-1.941c-1.408,0-5.269,1.092-5.269,2.5s3.862,2.5,5.269,2.5h2.315c.733,0,.715.754.715,1.138v2.406c0,1.408,1.592,5.269,3,5.269s3-3.862,3-5.269v-2.406c0-.319.644-1.138,1-1.138h2.315c1.408,0,5.269-1.092,5.269-2.5S420.8,340.189,419.394,340.189Z" transform="translate(-236 -86)" fill="#fff"/>
  <circle id="Elipse_41" data-name="Elipse 41" cx="3.5" cy="3.5" r="3.5" transform="translate(263.079 320.523)" fill="#0d47a1"/>
  <circle id="Elipse_42" data-name="Elipse 42" cx="6.958" cy="6.958" r="6.958" transform="translate(639.08 249.19)" fill="#3f3d56"/>
  <circle id="Elipse_43" data-name="Elipse 43" cx="2.5" cy="2.5" r="2.5" transform="translate(378.079 304.523)" fill="#0071bc"/>
  <circle id="Elipse_44" data-name="Elipse 44" cx="3.708" cy="3.708" r="3.708" transform="translate(209.58 221.19)" fill="#0d47a1"/>
  <path id="Caminho_85" data-name="Caminho 85" d="M823.894,276.189h-1.942c-.4,0-1.373-1.552-1.373-2v-1.8c0-1.408-1.592-5.269-3-5.269s-3,3.862-3,5.269v1.8c0,.635-.49,2-1.089,2h-1.942c-1.408,0-5.269,1.092-5.269,2.5s3.862,2.5,5.269,2.5h2.315c.733,0,.715.754.715,1.138v2.406c0,1.408,1.592,5.269,3,5.269s3-3.862,3-5.269v-2.406c0-.319.644-1.138,1-1.138h2.315c1.408,0,5.269-1.092,5.269-2.5S825.3,276.189,823.894,276.189Z" transform="translate(-236 -86)" fill="#fff"/>
  <circle id="Elipse_45" data-name="Elipse 45" cx="3.5" cy="3.5" r="3.5" transform="translate(667.579 236.523)" fill="#0d47a1"/>
  <circle id="Elipse_46" data-name="Elipse 46" cx="3.5" cy="3.5" r="3.5" transform="translate(528.579 129.523)" fill="#0d47a1"/>
  <circle id="Elipse_47" data-name="Elipse 47" cx="9.299" cy="9.299" r="9.299" transform="translate(625.239 222.849)" fill="url(#linear-gradient)"/>
  <circle id="Elipse_48" data-name="Elipse 48" cx="9.299" cy="9.299" r="9.299" transform="translate(490.239 239.849)" fill="url(#linear-gradient)"/>
  <circle id="Elipse_49" data-name="Elipse 49" cx="9.299" cy="9.299" r="9.299" transform="translate(405.239 140.849)" fill="#3f3d56"/>
  <circle id="Elipse_50" data-name="Elipse 50" cx="9.299" cy="9.299" r="9.299" transform="translate(296.239 194.849)" fill="#3f3d56"/>
  <circle id="Elipse_51" data-name="Elipse 51" cx="9.299" cy="9.299" r="9.299" transform="translate(107.239 154.849)" fill="#3f3d56"/>
  <circle id="Elipse_52" data-name="Elipse 52" cx="9.299" cy="9.299" r="9.299" transform="translate(74.239 313.849)" fill="url(#linear-gradient)"/>
  <circle id="Elipse_53" data-name="Elipse 53" cx="5.026" cy="5.026" r="5.026" transform="translate(601.032 128.456)" fill="url(#linear-gradient)"/>
  <circle id="Elipse_54" data-name="Elipse 54" cx="5.026" cy="5.026" r="5.026" transform="translate(337.032 256.456)" fill="url(#linear-gradient)"/>
  <circle id="Elipse_55" data-name="Elipse 55" cx="5.026" cy="5.026" r="5.026" transform="translate(50.033 185.456)" fill="#3f3d56"/>
  <circle id="Elipse_56" data-name="Elipse 56" cx="5.026" cy="5.026" r="5.026" transform="translate(115.032 312.456)" fill="url(#linear-gradient)"/>
  <circle id="Elipse_57" data-name="Elipse 57" cx="5.026" cy="5.026" r="5.026" transform="translate(229.032 295.456)" fill="url(#linear-gradient)"/>
  <circle id="Elipse_58" data-name="Elipse 58" cx="5.026" cy="5.026" r="5.026" transform="translate(394.032 216.456)" fill="url(#linear-gradient)"/>
  <circle id="Elipse_59" data-name="Elipse 59" cx="3.479" cy="3.479" r="3.479" transform="translate(602.579 130.003)" fill="#3f3d56"/>
  <circle id="Elipse_60" data-name="Elipse 60" cx="6.5" cy="6.5" r="6.5" transform="translate(627.871 226.106)" fill="#3f3d56"/>
  <ellipse id="Elipse_61" data-name="Elipse 61" cx="29" cy="5" rx="29" ry="5" transform="translate(329 410)" opacity="0.2"/>
  <rect id="Ret창ngulo_4" data-name="Ret창ngulo 4" width="4" height="63" transform="translate(325 287)" fill="#fff"/>
  <rect id="Ret창ngulo_5" data-name="Ret창ngulo 5" width="4" height="63" transform="translate(398 292)" fill="#fff"/>
  <circle id="Elipse_62" data-name="Elipse 62" cx="10" cy="10" r="10" transform="translate(317 277)" fill="#fff"/>
  <circle id="Elipse_63" data-name="Elipse 63" cx="10" cy="10" r="10" transform="translate(390 277)" fill="#fff"/>
</svg>
